<svg aria-hidden="true" style="position: absolute; width: 0; height: 0; overflow: hidden;" version="1.1" xmlns="http://www.w3.org/2000/svg" xmlns:xlink="http://www.w3.org/1999/xlink">
<defs>
<symbol id="icon-logo-white" viewBox="0 0 32 32">
<path fill="#fff" style="fill: var(--color1, #fff)" d="M2.832 18.844c-0.454 0-0.833-0.106-1.137-0.317s-0.534-0.499-0.689-0.862c-0.152-0.363-0.228-0.773-0.228-1.23s0.076-0.866 0.228-1.23c0.152-0.363 0.376-0.651 0.672-0.862s0.661-0.317 1.095-0.317c0.437 0 0.817 0.104 1.141 0.313s0.575 0.495 0.752 0.858c0.18 0.361 0.271 0.773 0.271 1.238 0 0.456-0.089 0.866-0.266 1.23-0.175 0.363-0.42 0.651-0.735 0.862s-0.683 0.317-1.103 0.317zM0.583 20.746v-6.593h1.014v3.128h0.144v3.466h-1.158zM2.646 17.821c0.248 0 0.451-0.062 0.609-0.186s0.275-0.29 0.351-0.499c0.076-0.211 0.114-0.445 0.114-0.702 0-0.254-0.039-0.485-0.118-0.693-0.079-0.211-0.201-0.379-0.368-0.503-0.163-0.127-0.373-0.19-0.63-0.19-0.24 0-0.434 0.058-0.583 0.173-0.147 0.116-0.254 0.278-0.321 0.486s-0.101 0.451-0.101 0.727c0 0.276 0.034 0.518 0.101 0.727s0.177 0.37 0.33 0.486c0.155 0.116 0.361 0.173 0.617 0.173zM7.65 18.844c-0.468 0-0.88-0.1-1.238-0.3-0.355-0.203-0.634-0.48-0.837-0.833-0.2-0.355-0.3-0.761-0.3-1.217 0-0.499 0.099-0.933 0.296-1.302s0.469-0.655 0.816-0.858c0.347-0.206 0.745-0.309 1.196-0.309 0.479 0 0.886 0.113 1.221 0.338s0.583 0.542 0.744 0.951c0.161 0.409 0.217 0.889 0.169 1.441h-1.137v-0.423c0-0.465-0.075-0.799-0.224-1.002-0.147-0.206-0.387-0.309-0.723-0.309-0.392 0-0.68 0.12-0.866 0.359-0.183 0.237-0.275 0.587-0.275 1.052 0 0.425 0.092 0.755 0.275 0.989 0.186 0.231 0.458 0.347 0.816 0.347 0.225 0 0.418-0.049 0.579-0.148s0.283-0.241 0.368-0.427l1.15 0.33c-0.172 0.417-0.444 0.741-0.816 0.972-0.369 0.231-0.773 0.347-1.213 0.347zM6.137 16.756v-0.854h3.026v0.854h-3.026zM13.072 18.717c-0.316 0.059-0.626 0.085-0.93 0.076-0.302-0.006-0.572-0.058-0.811-0.156-0.237-0.101-0.417-0.263-0.541-0.486-0.113-0.209-0.172-0.42-0.178-0.634-0.006-0.217-0.008-0.462-0.008-0.735v-3.897h1.15v3.829c0 0.177 0.001 0.338 0.004 0.482 0.006 0.141 0.035 0.254 0.089 0.338 0.101 0.161 0.263 0.248 0.486 0.262s0.469 0.003 0.74-0.034v0.955zM9.826 15.040v-0.888h3.246v0.888h-3.246zM13.835 18.717v-6.213h1.15v6.213h-1.15z"></path>
<path fill="#fff" style="fill: var(--color1, #fff)" d="M19.168 14.32c-0.555-0.656-1.481-0.832-2.177-0.232s-0.794 1.604-0.247 2.314c0.35 0.455 1.246 1.298 1.845 1.846 0.199 0.182 0.299 0.273 0.418 0.309 0.103 0.031 0.22 0.031 0.322 0 0.119-0.037 0.219-0.128 0.418-0.309 0.599-0.548 1.495-1.391 1.845-1.846 0.546-0.71 0.46-1.72-0.247-2.314s-1.622-0.424-2.177 0.232z"></path>
<path fill="#fff" style="fill: var(--color1, #fff)" d="M24.467 18.717l-1.657-4.565h1.019l1.15 3.309 1.145-3.309h1.023l-1.657 4.565h-1.023zM29.477 18.844c-0.462 0-0.868-0.1-1.217-0.3s-0.623-0.478-0.82-0.833c-0.194-0.355-0.292-0.764-0.292-1.226 0-0.499 0.096-0.931 0.287-1.297 0.192-0.369 0.458-0.655 0.799-0.858s0.735-0.304 1.183-0.304c0.473 0 0.875 0.111 1.205 0.334 0.332 0.22 0.579 0.531 0.74 0.934s0.221 0.878 0.182 1.424h-1.010v-0.372c-0.003-0.496-0.090-0.858-0.262-1.086s-0.442-0.342-0.812-0.342c-0.417 0-0.727 0.13-0.93 0.389-0.203 0.256-0.304 0.633-0.304 1.128 0 0.462 0.101 0.82 0.304 1.073s0.499 0.38 0.888 0.38c0.251 0 0.466-0.055 0.647-0.165 0.183-0.113 0.324-0.275 0.423-0.486l1.006 0.304c-0.175 0.411-0.445 0.731-0.811 0.959-0.363 0.228-0.765 0.342-1.205 0.342zM27.905 16.718v-0.769h3.14v0.769h-3.14z"></path>
</symbol>
<symbol id="icon-logo" viewBox="0 0 32 32">
<path fill="#262626" style="fill: var(--color2, #262626)" d="M2.812 18.871c-0.449 0-0.826-0.107-1.131-0.32s-0.533-0.503-0.687-0.87c-0.154-0.37-0.23-0.784-0.23-1.242 0-0.464 0.077-0.879 0.23-1.246s0.378-0.656 0.674-0.866c0.299-0.213 0.667-0.32 1.105-0.32 0.435 0 0.812 0.107 1.131 0.32 0.321 0.21 0.57 0.499 0.747 0.866 0.176 0.364 0.265 0.779 0.265 1.246 0 0.461-0.087 0.875-0.26 1.242s-0.418 0.657-0.734 0.87c-0.316 0.213-0.686 0.32-1.109 0.32zM0.589 20.791v-6.656h0.909v3.234h0.128v3.422h-1.037zM2.654 17.949c0.267 0 0.488-0.067 0.661-0.201s0.301-0.314 0.384-0.542c0.085-0.23 0.128-0.486 0.128-0.768 0-0.279-0.043-0.532-0.128-0.759-0.085-0.23-0.218-0.412-0.397-0.546-0.179-0.137-0.407-0.205-0.683-0.205-0.262 0-0.475 0.064-0.64 0.192-0.165 0.125-0.287 0.302-0.367 0.529-0.077 0.225-0.115 0.488-0.115 0.789 0 0.299 0.038 0.562 0.115 0.789 0.080 0.228 0.203 0.405 0.371 0.533 0.171 0.125 0.394 0.188 0.67 0.188zM7.609 18.871c-0.466 0-0.876-0.101-1.229-0.303s-0.629-0.482-0.828-0.841c-0.196-0.358-0.294-0.771-0.294-1.237 0-0.503 0.097-0.94 0.29-1.31 0.193-0.373 0.462-0.661 0.806-0.866s0.742-0.307 1.195-0.307c0.478 0 0.883 0.112 1.216 0.337 0.336 0.222 0.585 0.536 0.747 0.943s0.223 0.886 0.183 1.438h-1.020v-0.375c-0.003-0.501-0.091-0.866-0.265-1.097s-0.447-0.346-0.819-0.346c-0.421 0-0.734 0.131-0.939 0.393-0.205 0.259-0.307 0.639-0.307 1.139 0 0.466 0.102 0.828 0.307 1.084s0.503 0.384 0.896 0.384c0.253 0 0.471-0.055 0.653-0.166 0.185-0.114 0.327-0.277 0.427-0.491l1.015 0.307c-0.176 0.415-0.449 0.738-0.819 0.969-0.367 0.23-0.772 0.346-1.216 0.346zM6.022 16.725v-0.777h3.17v0.777h-3.17zM13.007 18.743c-0.304 0.057-0.603 0.081-0.896 0.073-0.29-0.006-0.55-0.058-0.781-0.158-0.23-0.102-0.405-0.263-0.525-0.482-0.105-0.199-0.161-0.402-0.166-0.61s-0.009-0.442-0.009-0.704v-4.006h1.024v3.947c0 0.185 0.001 0.347 0.004 0.486 0.006 0.139 0.036 0.253 0.090 0.341 0.102 0.171 0.266 0.266 0.491 0.286s0.481 0.009 0.768-0.034v0.862zM9.794 14.941v-0.806h3.213v0.806h-3.213zM13.742 18.743v-6.272h1.028v6.272h-1.028z"></path>
<path fill="#f6b83d" style="fill: var(--color3, #f6b83d)" d="M19.046 14.304c-0.561-0.662-1.495-0.84-2.198-0.234s-0.801 1.619-0.25 2.336c0.353 0.459 1.258 1.311 1.863 1.863 0.201 0.184 0.302 0.276 0.422 0.312 0.104 0.032 0.222 0.032 0.325 0 0.12-0.037 0.221-0.129 0.422-0.312 0.605-0.553 1.51-1.404 1.863-1.863 0.552-0.717 0.465-1.737-0.25-2.336s-1.637-0.428-2.198 0.234z"></path>
<path fill="#262626" style="fill: var(--color2, #262626)" d="M24.396 18.743l-1.673-4.608h1.028l1.161 3.341 1.156-3.341h1.033l-1.673 4.608h-1.033zM29.453 18.871c-0.466 0-0.876-0.101-1.229-0.303s-0.629-0.482-0.828-0.841c-0.196-0.358-0.294-0.771-0.294-1.237 0-0.503 0.097-0.94 0.29-1.31 0.193-0.373 0.462-0.661 0.806-0.866s0.742-0.307 1.195-0.307c0.478 0 0.883 0.112 1.216 0.337 0.336 0.222 0.585 0.536 0.747 0.943s0.223 0.886 0.183 1.438h-1.020v-0.375c-0.003-0.501-0.091-0.866-0.265-1.097s-0.447-0.346-0.819-0.346c-0.421 0-0.734 0.131-0.939 0.393-0.205 0.259-0.307 0.639-0.307 1.139 0 0.466 0.102 0.828 0.307 1.084s0.503 0.384 0.896 0.384c0.253 0 0.471-0.055 0.653-0.166 0.185-0.114 0.327-0.277 0.427-0.491l1.016 0.307c-0.176 0.415-0.45 0.738-0.819 0.969-0.367 0.23-0.772 0.346-1.216 0.346zM27.866 16.725v-0.777h3.17v0.777h-3.17z"></path>
</symbol>
<symbol id="icon-edit" viewBox="0 0 32 32">
<path fill="none" stroke="#f6b83d" style="stroke: var(--color3, #f6b83d)" stroke-linejoin="round" stroke-linecap="round" stroke-miterlimit="4" stroke-width="2.6667" d="M22.667 4c0.35-0.35 0.766-0.628 1.223-0.817s0.948-0.287 1.443-0.287c0.495 0 0.986 0.098 1.443 0.287s0.873 0.467 1.223 0.817c0.35 0.35 0.628 0.766 0.817 1.224s0.287 0.948 0.287 1.443c0 0.495-0.098 0.986-0.287 1.443s-0.467 0.873-0.817 1.223l-18 18-7.333 2 2-7.333 18-18z"></path>
</symbol>
<symbol id="icon-trash" viewBox="0 0 32 32">
<path fill="none" stroke="#f6b83d" style="stroke: var(--color3, #f6b83d)" stroke-linejoin="round" stroke-linecap="round" stroke-miterlimit="4" stroke-width="2.6667" d="M4 8h24"></path>
<path fill="none" stroke="#f6b83d" style="stroke: var(--color3, #f6b83d)" stroke-linejoin="round" stroke-linecap="round" stroke-miterlimit="4" stroke-width="2.6667" d="M25.333 8v18.667c0 0.707-0.281 1.386-0.781 1.886s-1.178 0.781-1.886 0.781h-13.333c-0.707 0-1.386-0.281-1.886-0.781s-0.781-1.178-0.781-1.886v-18.667M10.667 8v-2.667c0-0.707 0.281-1.386 0.781-1.886s1.178-0.781 1.886-0.781h5.333c0.707 0 1.386 0.281 1.886 0.781s0.781 1.178 0.781 1.886v2.667"></path>
<path fill="none" stroke="#f6b83d" style="stroke: var(--color3, #f6b83d)" stroke-linejoin="round" stroke-linecap="round" stroke-miterlimit="4" stroke-width="2.6667" d="M13.333 14.667v8"></path>
<path fill="none" stroke="#f6b83d" style="stroke: var(--color3, #f6b83d)" stroke-linejoin="round" stroke-linecap="round" stroke-miterlimit="4" stroke-width="2.6667" d="M18.667 14.667v8"></path>
</symbol>
<symbol id="icon-heart" viewBox="0 0 32 32">
<path fill="none" stroke="#f6b83d" style="stroke: var(--color3, #f6b83d)" stroke-linejoin="round" stroke-linecap="round" stroke-miterlimit="4" stroke-width="2.6667" d="M27.788 6.147c-0.681-0.681-1.49-1.222-2.38-1.591s-1.844-0.559-2.807-0.559c-0.963 0-1.917 0.19-2.807 0.559s-1.699 0.909-2.38 1.591l-1.413 1.413-1.413-1.413c-1.376-1.376-3.241-2.148-5.187-2.148s-3.811 0.773-5.187 2.148c-1.376 1.376-2.148 3.241-2.148 5.187s0.773 3.811 2.148 5.187l11.787 11.787 11.787-11.787c0.681-0.681 1.222-1.49 1.591-2.38s0.558-1.844 0.558-2.807-0.19-1.917-0.558-2.807c-0.369-0.89-0.909-1.699-1.591-2.38z"></path>
</symbol>
<symbol id="icon-male" viewBox="0 0 32 32">
<path fill="none" stroke="#54adff" style="stroke: var(--color4, #54adff)" stroke-linejoin="round" stroke-linecap="round" stroke-miterlimit="4" stroke-width="2" d="M16 14.667c-3.682 0-6.667 2.985-6.667 6.667s2.985 6.667 6.667 6.667c3.682 0 6.667-2.985 6.667-6.667s-2.985-6.667-6.667-6.667zM16 14.667v-10.667M16 4l5.333 5.333M16 4l-5.333 5.333"></path>
</symbol>
<symbol id="icon-female" viewBox="0 0 32 32">
<path fill="none" stroke="#f43f5e" style="stroke: var(--color5, #f43f5e)" stroke-linejoin="round" stroke-linecap="round" stroke-miterlimit="4" stroke-width="2" d="M16 17.333c3.682 0 6.667-2.985 6.667-6.667s-2.985-6.667-6.667-6.667c-3.682 0-6.667 2.985-6.667 6.667s2.985 6.667 6.667 6.667zM16 17.333v10.667M12 24h8"></path>
</symbol>
<symbol id="icon-healthicons_sex" viewBox="0 0 32 32">
<path fill="#f6b83d" style="fill: var(--color3, #f6b83d)" d="M11.694 10.327c-0.957-0.374-2.010-0.421-2.997-0.135s-1.851 0.89-2.459 1.718c-0.608 0.828-0.926 1.833-0.905 2.86s0.382 2.018 1.024 2.82 1.532 1.369 2.529 1.613c0.998 0.245 2.048 0.153 2.988-0.261s1.718-1.126 2.212-2.026c0.494-0.901 0.677-1.939 0.52-2.954-0.013-0.087-0.009-0.175 0.011-0.26s0.058-0.165 0.11-0.236c0.052-0.071 0.117-0.13 0.192-0.176s0.158-0.076 0.244-0.089 0.175-0.009 0.26 0.011c0.085 0.021 0.165 0.058 0.236 0.11s0.13 0.117 0.176 0.192c0.045 0.075 0.076 0.158 0.089 0.244 0.201 1.305-0.034 2.64-0.67 3.798s-1.635 2.073-2.844 2.605c-1.209 0.531-2.559 0.649-3.842 0.335s-2.426-1.044-3.252-2.074c-0.826-1.031-1.289-2.305-1.316-3.625s0.381-2.613 1.163-3.677 1.893-1.841 3.162-2.209c1.268-0.368 2.623-0.307 3.853 0.173 0.083 0.031 0.158 0.078 0.223 0.139s0.116 0.133 0.152 0.214c0.036 0.081 0.056 0.168 0.058 0.256s-0.013 0.176-0.045 0.258c-0.032 0.082-0.080 0.157-0.142 0.221s-0.135 0.114-0.216 0.149c-0.081 0.035-0.168 0.053-0.257 0.054s-0.176-0.015-0.258-0.048z"></path>
<path fill="#f6b83d" style="fill: var(--color3, #f6b83d)" d="M9.331 26v-5.331c0-0.177 0.070-0.346 0.195-0.471s0.294-0.195 0.471-0.195c0.177 0 0.346 0.070 0.471 0.195s0.195 0.295 0.195 0.471v5.331c0 0.177-0.070 0.346-0.195 0.471s-0.294 0.195-0.471 0.195c-0.177 0-0.346-0.070-0.471-0.195s-0.195-0.294-0.195-0.471z"></path>
<path fill="#f6b83d" style="fill: var(--color3, #f6b83d)" d="M7.332 22.668c0-0.177 0.070-0.346 0.195-0.471s0.294-0.195 0.471-0.195h3.998c0.177 0 0.346 0.070 0.471 0.195s0.195 0.295 0.195 0.471c0 0.177-0.070 0.346-0.195 0.471s-0.294 0.195-0.471 0.195h-3.998c-0.177 0-0.346-0.070-0.471-0.195s-0.195-0.294-0.195-0.471zM19.262 10.182c-0.739-0.209-1.517-0.232-2.267-0.067s-1.447 0.511-2.030 1.010-1.035 1.133-1.315 1.848c-0.28 0.715-0.379 1.487-0.288 2.249 0.011 0.087 0.004 0.176-0.019 0.26s-0.063 0.164-0.118 0.233c-0.054 0.069-0.121 0.127-0.198 0.17s-0.161 0.071-0.248 0.081c-0.087 0.010-0.176 0.003-0.26-0.021s-0.163-0.064-0.232-0.119-0.126-0.122-0.169-0.199c-0.043-0.077-0.070-0.161-0.080-0.249-0.156-1.311 0.126-2.638 0.801-3.773s1.706-2.016 2.933-2.505c1.227-0.489 2.58-0.56 3.851-0.201s2.388 1.127 3.178 2.185c0.79 1.059 1.208 2.348 1.19 3.669s-0.471 2.598-1.29 3.635-1.956 1.774-3.236 2.098c-1.28 0.324-2.632 0.216-3.845-0.307-0.080-0.035-0.153-0.085-0.214-0.147s-0.109-0.137-0.141-0.218c-0.065-0.164-0.063-0.348 0.007-0.51s0.201-0.29 0.366-0.356c0.164-0.065 0.348-0.063 0.51 0.007 0.586 0.253 1.218 0.382 1.857 0.381s1.27-0.134 1.855-0.389c0.585-0.255 1.112-0.628 1.547-1.095s0.77-1.018 0.983-1.62c0.214-0.602 0.301-1.241 0.258-1.878s-0.217-1.258-0.51-1.825-0.7-1.068-1.194-1.472c-0.495-0.404-1.067-0.701-1.681-0.875z"></path>
<path fill="#f6b83d" style="fill: var(--color3, #f6b83d)" d="M21.855 11.477c-0.125-0.125-0.195-0.294-0.195-0.471s0.070-0.346 0.195-0.471l4.998-4.998c0.061-0.064 0.135-0.114 0.216-0.149s0.169-0.053 0.257-0.054c0.088-0.001 0.176 0.016 0.258 0.050s0.156 0.083 0.219 0.146c0.063 0.063 0.112 0.137 0.146 0.219s0.050 0.17 0.050 0.258c-0.001 0.088-0.019 0.176-0.054 0.257s-0.086 0.155-0.149 0.216l-4.998 4.998c-0.125 0.125-0.295 0.195-0.471 0.195s-0.346-0.070-0.471-0.195z"></path>
<path fill="#f6b83d" style="fill: var(--color3, #f6b83d)" d="M27.273 10.007c-0.088-0.001-0.174-0.020-0.254-0.054s-0.153-0.085-0.214-0.147c-0.061-0.063-0.109-0.137-0.142-0.218s-0.049-0.168-0.047-0.256l0.033-2.648-2.648 0.033c-0.177 0.002-0.347-0.066-0.474-0.189s-0.199-0.292-0.201-0.469 0.066-0.347 0.189-0.474c0.123-0.127 0.292-0.199 0.469-0.201l4.016-0.051-0.051 4.016c-0.001 0.088-0.019 0.174-0.054 0.254s-0.085 0.153-0.147 0.214c-0.063 0.061-0.137 0.109-0.218 0.142s-0.168 0.049-0.256 0.047z"></path>
</symbol>
<symbol id="icon-star" viewBox="0 0 32 32">
<path fill="#ffc531" style="fill: var(--color6, #ffc531); stroke: var(--color6, #ffc531)" stroke="#ffc531" stroke-linejoin="miter" stroke-linecap="butt" stroke-miterlimit="4" stroke-width="2.4" d="M19.6 9.395c0.318 0.603 0.898 1.024 1.57 1.141l7.6 1.313-5.375 5.535c-0.475 0.489-0.697 1.171-0.6 1.846l1.098 7.635-6.922-3.402-0.234-0.1c-0.476-0.169-0.996-0.169-1.473 0l-0.234 0.1-6.924 3.402 1.1-7.635c0.097-0.675-0.125-1.357-0.6-1.846l-5.377-5.535 7.602-1.313c0.672-0.116 1.252-0.538 1.57-1.141l3.6-6.822 3.6 6.822z"></path>
</symbol>
<symbol id="icon-calendar" viewBox="0 0 32 32">
<path stroke-linejoin="round" stroke-linecap="round" stroke-miterlimit="4" stroke-width="2.88" d="M25.333 5.333h-18.667c-1.473 0-2.667 1.194-2.667 2.667v18.667c0 1.473 1.194 2.667 2.667 2.667h18.667c1.473 0 2.667-1.194 2.667-2.667v-18.667c0-1.473-1.194-2.667-2.667-2.667z"></path>
<path stroke-linejoin="round" stroke-linecap="round" stroke-miterlimit="4" stroke-width="2.88" d="M21.333 2.667v5.333"></path>
<path stroke-linejoin="round" stroke-linecap="round" stroke-miterlimit="4" stroke-width="2.88" d="M10.667 2.667v5.333"></path>
<path stroke-linejoin="round" stroke-linecap="round" stroke-miterlimit="4" stroke-width="2.88" d="M4 13.333h24"></path>
</symbol>
<symbol id="icon-user" viewBox="0 0 32 32">
<path fill="#f6b83d" style="fill: var(--color3, #f6b83d); stroke: var(--color3, #f6b83d)" stroke="#f6b83d" stroke-linejoin="round" stroke-linecap="round" stroke-miterlimit="4" stroke-width="2.6667" d="M16 20c-4.227 0-7.986 2.041-10.379 5.208-0.515 0.682-0.773 1.022-0.764 1.483 0.006 0.356 0.23 0.805 0.51 1.025 0.362 0.284 0.865 0.284 1.869 0.284h17.527c1.005 0 1.507 0 1.869-0.284 0.28-0.22 0.503-0.669 0.51-1.025 0.008-0.461-0.249-0.801-0.764-1.483-2.393-3.167-6.152-5.208-10.379-5.208z"></path>
<path fill="#f6b83d" style="fill: var(--color3, #f6b83d); stroke: var(--color3, #f6b83d)" stroke="#f6b83d" stroke-linejoin="round" stroke-linecap="round" stroke-miterlimit="4" stroke-width="2.6667" d="M16 16c3.314 0 6-2.686 6-6s-2.686-6-6-6c-3.314 0-6 2.686-6 6s2.686 6 6 6z"></path>
</symbol>
<symbol id="icon-chevron-down" viewBox="0 0 32 32">
<path stroke-linejoin="round" stroke-linecap="round" stroke-miterlimit="4" stroke-width="3.5556" d="M8 12l8 8 8-8"></path>
</symbol>
<symbol id="icon-search" viewBox="0 0 32 32">
<path stroke-linejoin="round" stroke-linecap="round" stroke-miterlimit="4" stroke-width="3.5556" d="M14.667 25.333c5.891 0 10.667-4.776 10.667-10.667s-4.776-10.667-10.667-10.667c-5.891 0-10.667 4.776-10.667 10.667s4.776 10.667 10.667 10.667z"></path>
<path stroke-linejoin="round" stroke-linecap="round" stroke-miterlimit="4" stroke-width="3.5556" d="M28.001 28l-5.8-5.8"></path>
</symbol>
<symbol id="icon-check" viewBox="0 0 32 32">
<path fill="none" stroke="#08aa83" style="stroke: var(--color7, #08aa83)" stroke-linejoin="round" stroke-linecap="round" stroke-miterlimit="4" stroke-width="2.1818" d="M26.667 9.333l-14.667 14.667-6.667-6.667"></path>
</symbol>
<symbol id="icon-cross-small" viewBox="0 0 32 32">
<path fill="none" stroke="#ef2447" style="stroke: var(--color8, #ef2447)" stroke-linejoin="round" stroke-linecap="round" stroke-miterlimit="4" stroke-width="2.9091" d="M25.333 6.667l-18.667 18.667M6.666 6.667l18.667 18.667"></path>
</symbol>
<symbol id="icon-eye" viewBox="0 0 32 32">
<path fill="none" stroke="#f6b83d" style="stroke: var(--color3, #f6b83d)" stroke-linejoin="round" stroke-linecap="round" stroke-miterlimit="4" stroke-width="2.9091" d="M1.332 16c0 0 5.333-10.667 14.667-10.667s14.667 10.667 14.667 10.667-5.333 10.667-14.667 10.667c-9.333 0-14.667-10.667-14.667-10.667z"></path>
<path fill="none" stroke="#f6b83d" style="stroke: var(--color3, #f6b83d)" stroke-linejoin="round" stroke-linecap="round" stroke-miterlimit="4" stroke-width="2.9091" d="M16 20c2.209 0 4-1.791 4-4s-1.791-4-4-4c-2.209 0-4 1.791-4 4s1.791 4 4 4z"></path>
</symbol>
<symbol id="icon-eye-off" viewBox="0 0 32 32">
<path fill="none" stroke="#f6b83d" style="stroke: var(--color3, #f6b83d)" stroke-linejoin="round" stroke-linecap="round" stroke-miterlimit="4" stroke-width="2.9091" d="M23.922 23.92c-2.279 1.737-5.055 2.7-7.92 2.747-9.333 0-14.667-10.667-14.667-10.667 1.659-3.091 3.959-5.791 6.747-7.92M13.202 5.653c0.918-0.215 1.857-0.322 2.8-0.32 9.333 0 14.667 10.667 14.667 10.667-0.809 1.514-1.775 2.94-2.88 4.253M18.828 18.827c-0.366 0.393-0.808 0.708-1.298 0.927s-1.020 0.336-1.557 0.346c-0.537 0.009-1.071-0.089-1.569-0.291s-0.951-0.5-1.33-0.88c-0.38-0.38-0.679-0.832-0.88-1.33s-0.3-1.032-0.29-1.569c0.009-0.537 0.127-1.067 0.346-1.557s0.534-0.932 0.927-1.298"></path>
<path fill="none" stroke="#f6b83d" style="stroke: var(--color3, #f6b83d)" stroke-linejoin="round" stroke-linecap="round" stroke-miterlimit="4" stroke-width="2.9091" d="M1.335 1.333l29.333 29.333"></path>
</symbol>
</defs>
</svg>
